<svg width="33" height="33" viewBox="0 0 33 33" fill="none" xmlns="http://www.w3.org/2000/svg">
<path fill-rule="evenodd" clip-rule="evenodd" d="M27.5 1.375C29.7782 1.375 31.625 3.22183 31.625 5.5V27.5C31.625 29.7782 29.7782 31.625 27.5 31.625H5.5C3.22183 31.625 1.375 29.7782 1.375 27.5V5.5C1.375 3.22183 3.22183 1.375 5.5 1.375H27.5ZM27.5 4.125C28.2594 4.125 28.875 4.74061 28.875 5.5V27.5C28.875 28.2594 28.2594 28.875 27.5 28.875H20.625V19.2499H23.4798C24.0716 19.2499 24.597 18.8712 24.7842 18.3096L25.3934 16.4823C25.616 15.8144 25.1189 15.1249 24.415 15.1249H20.625V12.3749C20.625 11.6874 21.3125 10.9999 22 10.9999H24.75C25.5094 10.9999 26.125 10.3843 26.125 9.62489V8.68165C26.125 8.2375 25.8413 7.83929 25.4118 7.72595C23.6094 7.25031 22 7.25031 22 7.25031C18.5625 7.25031 16.5 9.62489 16.5 11.6874V15.1249H13.75C12.9906 15.1249 12.375 15.7404 12.375 16.4999V17.8749C12.375 18.6343 12.9906 19.2499 13.75 19.2499H16.5V28.875H5.5C4.74061 28.875 4.125 28.2594 4.125 27.5V5.5C4.125 4.74061 4.74061 4.125 5.5 4.125H27.5Z" fill="white"/>
</svg>
