<svg width="33" height="33" viewBox="0 0 33 33" fill="none" xmlns="http://www.w3.org/2000/svg">
<path fill-rule="evenodd" clip-rule="evenodd" d="M16.5 24.75C21.0563 24.75 24.75 21.0563 24.75 16.5C24.75 11.9436 21.0563 8.25 16.5 8.25C11.9436 8.25 8.25 11.9436 8.25 16.5C8.25 21.0563 11.9436 24.75 16.5 24.75ZM16.5 22C19.5375 22 22 19.5375 22 16.5C22 13.4624 19.5375 11 16.5 11C13.4624 11 11 13.4624 11 16.5C11 19.5375 13.4624 22 16.5 22Z" fill="white"/>
<path d="M24.75 6.875C23.9906 6.875 23.375 7.49062 23.375 8.25C23.375 9.00939 23.9906 9.625 24.75 9.625C25.5094 9.625 26.125 9.00939 26.125 8.25C26.125 7.49062 25.5094 6.875 24.75 6.875Z" fill="white"/>
<path fill-rule="evenodd" clip-rule="evenodd" d="M2.27419 5.87958C1.375 7.64435 1.375 9.95457 1.375 14.575V18.425C1.375 23.0454 1.375 25.3557 2.27419 27.1204C3.06515 28.6727 4.32723 29.9349 5.87958 30.7257C7.64435 31.625 9.95457 31.625 14.575 31.625H18.425C23.0454 31.625 25.3557 31.625 27.1204 30.7257C28.6727 29.9349 29.9349 28.6727 30.7257 27.1204C31.625 25.3557 31.625 23.0454 31.625 18.425V14.575C31.625 9.95457 31.625 7.64435 30.7257 5.87958C29.9349 4.32723 28.6727 3.06515 27.1204 2.27419C25.3557 1.375 23.0454 1.375 18.425 1.375H14.575C9.95457 1.375 7.64435 1.375 5.87958 2.27419C4.32723 3.06515 3.06515 4.32723 2.27419 5.87958ZM18.425 4.125H14.575C12.2194 4.125 10.6181 4.12714 9.38036 4.22826C8.17471 4.32677 7.55816 4.50531 7.12806 4.72446C6.09316 5.25177 5.25177 6.09316 4.72446 7.12806C4.50531 7.55816 4.32677 8.17471 4.22826 9.38036C4.12714 10.6181 4.125 12.2194 4.125 14.575V18.425C4.125 20.7806 4.12714 22.3818 4.22826 23.6196C4.32677 24.8253 4.50531 25.4419 4.72446 25.872C5.25177 26.9068 6.09316 27.7482 7.12806 28.2755C7.55816 28.4947 8.17471 28.6733 9.38036 28.7717C10.6181 28.8728 12.2194 28.875 14.575 28.875H18.425C20.7806 28.875 22.3818 28.8728 23.6196 28.7717C24.8253 28.6733 25.4419 28.4947 25.872 28.2755C26.9068 27.7482 27.7482 26.9068 28.2755 25.872C28.4947 25.4419 28.6733 24.8253 28.7717 23.6196C28.8728 22.3818 28.875 20.7806 28.875 18.425V14.575C28.875 12.2194 28.8728 10.6181 28.7717 9.38036C28.6733 8.17471 28.4947 7.55816 28.2755 7.12806C27.7482 6.09316 26.9068 5.25177 25.872 4.72446C25.4419 4.50531 24.8253 4.32677 23.6196 4.22826C22.3818 4.12714 20.7806 4.125 18.425 4.125Z" fill="white"/>
</svg>
